HIERARCHY
ROOT Hips
{
	OFFSET 50.780602 -13.637514 86.609596
	CHANNELS 6 Xposition Yposition Zposition Xrotation Yrotation Zrotation
	JOINT spine
	{
		OFFSET 0.000000 -0.393701 6.846367
		CHANNELS 3 Xrotation Yrotation Zrotation
		JOINT spine1
		{
			OFFSET 0.000000 -0.000002 9.496208
			CHANNELS 3 Xrotation Yrotation Zrotation
			JOINT spine2
			{
				OFFSET 0.000000 -0.000001 9.099091
				CHANNELS 3 Xrotation Yrotation Zrotation
				JOINT Neck
				{
					OFFSET 0.000000 -1.113784 23.361198
					CHANNELS 3 Xrotation Yrotation Zrotation
					JOINT Head
					{
						OFFSET 0.000000 -0.000001 7.058014
						CHANNELS 3 Xrotation Yrotation Zrotation
						End Site
						{
							OFFSET 0.000000 5.634187 17.084396
						}
					}
				}
				JOINT RightShoulder
				{
					OFFSET -3.831360 0.533489 9.826309
					CHANNELS 3 Xrotation Yrotation Zrotation
					JOINT RightArm
					{
						OFFSET 0.000000 -0.000002 12.888100
						CHANNELS 3 Xrotation Yrotation Zrotation
						JOINT RightArmRoll
						{
							OFFSET 0.000000 -0.000001 6.506165
							CHANNELS 3 Xrotation Yrotation Zrotation
							JOINT RightForeArm
							{
								OFFSET 0.000000 -0.000003 18.950104
								CHANNELS 3 Xrotation Yrotation Zrotation
								JOINT RightForeArmRoll
								{
									OFFSET 0.000000 -0.000002 7.300919
									CHANNELS 3 Xrotation Yrotation Zrotation
									JOINT RightHand
									{
										OFFSET 0.000000 -0.000002 14.651398
										CHANNELS 3 Xrotation Yrotation Zrotation
										End Site
										{
											OFFSET 0.000000 0.000000 0.100006
										}
									}
								}
							}
						}
					}
				}
				JOINT LeftShoulder
				{
					OFFSET 3.831360 0.533489 9.826309
					CHANNELS 3 Xrotation Yrotation Zrotation
					JOINT LeftArm
					{
						OFFSET 0.000000 -0.000002 12.888100
						CHANNELS 3 Xrotation Yrotation Zrotation
						JOINT LeftArmRoll
						{
							OFFSET 0.000000 -0.000001 6.506165
							CHANNELS 3 Xrotation Yrotation Zrotation
							JOINT LeftForeArm
							{
								OFFSET 0.000000 -0.000003 18.950104
								CHANNELS 3 Xrotation Yrotation Zrotation
								JOINT LeftForeArmRoll
								{
									OFFSET 0.000000 -0.000002 7.300919
									CHANNELS 3 Xrotation Yrotation Zrotation
									JOINT LeftHand
									{
										OFFSET 0.000000 -0.000002 14.651398
										CHANNELS 3 Xrotation Yrotation Zrotation
										End Site
										{
											OFFSET 0.000000 0.000000 0.100006
										}
									}
								}
							}
						}
					}
				}
			}
		}
	}
	JOINT RightUpLeg
	{
		OFFSET -6.068371 0.933477 -1.112778
		CHANNELS 3 Xrotation Yrotation Zrotation
		JOINT RightUpLegRoll
		{
			OFFSET 0.000000 -0.000003 17.179604
			CHANNELS 3 Xrotation Yrotation Zrotation
			JOINT RightLeg
			{
				OFFSET 0.000000 0.000004 -21.274300
				CHANNELS 3 Xrotation Yrotation Zrotation
				JOINT RightLegRoll
				{
					OFFSET 0.000000 -0.000004 21.343903
					CHANNELS 3 Xrotation Yrotation Zrotation
					JOINT RightFoot
					{
						OFFSET 0.000000 -0.000003 17.765198
						CHANNELS 3 Xrotation Yrotation Zrotation
						JOINT RightToeBase
						{
							OFFSET 0.000000 -0.000002 14.850807
							CHANNELS 3 Xrotation Yrotation Zrotation
							End Site
							{
								OFFSET 0.006294 0.829004 7.192123
							}
						}
					}
				}
			}
		}
	}
	JOINT LeftUpLeg
	{
		OFFSET 6.068371 0.933477 -1.112778
		CHANNELS 3 Xrotation Yrotation Zrotation
		JOINT LeftUpLegRoll
		{
			OFFSET 0.000000 -0.000003 17.179703
			CHANNELS 3 Xrotation Yrotation Zrotation
			JOINT LeftLeg
			{
				OFFSET 0.000000 -0.000003 21.274200
				CHANNELS 3 Xrotation Yrotation Zrotation
				JOINT LeftLegRoll
				{
					OFFSET 0.000000 -0.000004 21.541206
					CHANNELS 3 Xrotation Yrotation Zrotation
					JOINT LeftFoot
					{
						OFFSET 0.000000 -0.000003 17.567902
						CHANNELS 3 Xrotation Yrotation Zrotation
						JOINT LeftToeBase
						{
							OFFSET 0.000000 -0.000002 14.850800
							CHANNELS 3 Xrotation Yrotation Zrotation
							End Site
							{
								OFFSET -0.028210 0.829003 7.192139
							}
						}
					}
				}
			}
		}
	}
}
MOTION
Frames: 7
Frame Time: 0.041667
51.884998 -14.980616 80.456711 10.294926 -0.676707 2.008903 -1.884598 -1.648389 0.718152 0.253677 -3.312948 1.399159 1.899683 -3.295943 1.438778 -13.087039 16.657752 -2.718178 7.063387 -14.301962 -5.740361 -8.054373 -51.840279 -8.946223 -50.966206 -126.740580 -51.512870 -0.000003 0.000006 -0.000009 5.778150 -22.776644 2.433796 -0.000003 -0.000005 -3.007570 -5.000211 -7.998732 0.000163 -27.517878 67.945404 32.017229 -62.706655 122.447001 62.322758 0.000004 0.000004 -0.000005 21.646087 27.169975 -6.093201 -0.000000 -0.000002 3.000000 -5.000189 7.998744 -0.000168 -35.491470 -174.782628 5.411665 -179.999991 0.000005 -1.031995 128.830249 -8.957453 -4.350288 -0.000008 -0.000004 0.947142 90.733155 7.806422 -5.866619 25.460215 -7.352877 0.000525 -34.566464 -181.508766 -2.764721 -0.000003 -0.000004 -0.987404 -53.047351 6.228360 3.258710 -0.000006 -0.000002 -0.916022 90.587815 -7.297991 3.024588 28.457582 7.347450 -0.380190 
51.853901 -14.997816 80.529297 10.245628 -0.680071 2.024310 -1.879474 -1.634441 0.718026 0.263753 -3.284986 1.399343 1.909748 -3.267987 1.438627 -13.276669 16.591885 -2.720660 7.283249 -14.248473 -5.733760 -8.085677 -51.607984 -8.966009 -50.366928 -126.853224 -51.463286 -0.000004 0.000006 -0.000010 6.431407 -22.820412 2.603354 -0.000002 -0.000003 -3.007570 -5.000209 -7.998730 0.000163 -27.157329 67.648891 31.627358 -62.045029 122.554617 62.427704 0.000004 0.000000 -0.000003 22.564034 27.231925 -6.361270 0.000001 -0.000002 3.000001 -5.000189 7.998744 -0.000167 -35.343275 -174.741948 5.451762 -179.999991 0.000005 -1.030001 129.011878 -8.999292 -4.355389 -0.000009 -0.000003 0.940221 90.643639 7.816879 -5.876970 25.460218 -7.352905 0.000528 -34.461706 -181.584076 -2.805240 -0.000002 -0.000004 -0.979013 -52.915176 6.281210 3.268652 -0.000005 -0.000003 -0.900073 90.458315 -7.305916 3.018359 28.502140 7.347261 -0.385839 
51.852901 -15.013416 80.567299 10.197931 -0.682898 2.038844 -1.875769 -1.620751 0.717621 0.271003 -3.257563 1.398929 1.916974 -3.240569 1.437883 -13.460364 16.530789 -2.720868 7.499605 -14.199898 -5.725034 -8.114694 -51.376847 -8.983109 -49.764847 -126.958409 -51.428930 -0.000003 0.000006 -0.000011 7.099088 -22.852683 2.780759 -0.000003 -0.000005 -3.007570 -5.000211 -7.998732 0.000165 -26.809519 67.354852 31.250410 -61.401133 122.649188 62.557662 0.000005 0.000003 -0.000003 23.466293 27.275631 -6.630214 -0.000003 -0.000000 2.999999 -5.000187 7.998744 -0.000167 -35.186857 -174.703945 5.486530 -179.999991 0.000005 -1.028006 129.213041 -9.042194 -4.359217 -0.000009 -0.000003 0.932512 90.544874 7.828043 -5.886785 25.460215 -7.352924 0.000525 -34.345135 -181.656476 -2.843571 -0.000003 -0.000004 -0.970402 -52.759666 6.336494 3.277842 -0.000004 -0.000002 -0.883471 90.324355 -7.314345 3.013932 28.541346 7.347085 -0.390857 
51.868099 -15.033217 80.647102 10.152337 -0.685145 2.052266 -1.873689 -1.607431 0.716857 0.274995 -3.230873 1.397728 1.920951 -3.213908 1.436355 -13.636767 16.475753 -2.717962 7.710905 -14.157577 -5.713508 -8.140145 -51.147667 -8.996080 -49.161089 -127.057050 -51.406876 -0.000002 0.000006 -0.000010 7.775933 -22.870361 2.964511 -0.000003 -0.000003 -3.007569 -5.000207 -7.998734 0.000163 -26.475922 67.065238 30.888004 -60.777345 122.731642 62.709538 0.000004 0.000003 -0.000003 24.340837 27.298007 -6.895862 0.000001 0.000000 3.000000 -5.000191 7.998743 -0.000167 -35.022430 -174.671091 5.516551 -179.999991 0.000005 -1.025998 129.434653 -9.085591 -4.360827 -0.000010 -0.000002 0.924026 90.436281 7.840016 -5.895695 25.460215 -7.352950 0.000530 -34.216785 -181.727674 -2.877592 -0.000002 -0.000004 -0.961628 -52.579855 6.393865 3.286133 -0.000006 -0.000002 -0.866314 90.185647 -7.323353 3.011375 28.574993 7.346908 -0.395212 
51.868599 -15.047115 80.686806 10.109535 -0.686773 2.064328 -1.873445 -1.594568 0.715652 0.275301 -3.205123 1.395572 1.921244 -3.188181 1.433900 -13.804103 16.427952 -2.711213 7.915646 -14.122853 -5.698482 -8.160742 -50.921430 -9.003473 -48.557437 -127.150392 -51.394745 -0.000003 0.000006 -0.000010 8.456619 -22.870552 3.152959 -0.000003 -0.000006 -3.007569 -5.000209 -7.998735 0.000164 -26.157574 66.782072 30.541368 -60.179089 122.802006 62.883735 0.000004 0.000003 -0.000004 25.175913 27.296159 -7.154016 -0.000001 -0.000002 3.000000 -5.000192 7.998744 -0.000168 -34.850576 -174.642678 5.540091 -179.999991 0.000005 -1.022993 129.677398 -9.130207 -4.360880 -0.000007 -0.000005 0.914779 90.317306 7.852696 -5.903679 25.460119 -7.352984 0.000519 -34.076777 -181.794337 -2.908562 -0.000002 -0.000004 -0.952746 -52.374669 6.453053 3.293435 -0.000005 -0.000002 -0.848695 90.041831 -7.332976 3.010784 28.603178 7.346708 -0.398926 
51.822899 -15.113715 80.783890 10.070032 -0.687738 2.074780 -1.875254 -1.582263 0.713923 0.271502 -3.180505 1.392302 1.917434 -3.163602 1.430337 -13.960816 16.388675 -2.699765 8.112301 -14.097171 -5.679212 -8.175263 -50.698944 -9.003910 -47.956493 -127.238843 -51.391320 -0.000002 0.000006 -0.000011 9.135775 -22.850283 3.344277 -0.000001 -0.000005 -3.007568 -5.000209 -7.998732 0.000166 -25.855019 66.507430 30.211214 -59.610715 122.860828 63.079420 0.000003 0.000003 -0.000004 25.959365 27.267406 -7.400186 -0.000001 -0.000001 3.000000 -5.000195 7.998744 -0.000168 -34.671410 -174.619537 5.556579 -179.999991 0.000005 -1.020002 129.942450 -9.174833 -4.358659 -0.000008 -0.000004 0.904782 90.187368 7.866152 -5.910382 25.460119 -7.353002 0.000518 -33.925140 -181.858144 -2.934342 -0.000002 -0.000004 -0.943814 -52.142928 6.513709 3.299510 -0.000008 -0.000001 -0.830712 89.892570 -7.343316 3.012303 28.625697 7.346500 -0.401983 
51.834702 -15.095019 80.810104 10.033129 -0.687297 2.084175 -1.879186 -1.570425 0.711594 0.263432 -3.156838 1.387776 1.909347 -3.139989 1.425513 -14.108995 16.356239 -2.683508 8.304125 -14.078748 -5.655290 -8.184833 -50.478431 -8.998457 -47.354747 -127.318278 -51.412709 -0.000004 0.000007 -0.000010 9.832450 -22.817574 3.541430 -0.000004 -0.000004 -3.007569 -5.000212 -7.998733 0.000165 -25.564462 66.237740 29.893395 -59.073029 122.904200 63.313989 0.000005 0.000002 -0.000004 26.709668 27.217547 -7.638975 0.000001 -0.000002 3.000000 -5.000187 7.998741 -0.000167 -34.484604 -174.599238 5.567948 -179.999991 0.000005 -1.015999 130.226299 -9.224727 -4.355493 -0.000009 -0.000004 0.893139 90.048975 7.880514 -5.918868 25.460126 -7.353027 0.000521 -33.759474 -181.924138 -2.957936 -0.000003 -0.000004 -0.933678 -51.884846 6.583527 3.306851 -0.000003 -0.000002 -0.810907 89.742962 -7.354555 3.019488 28.638524 7.346289 -0.403888 
